# xmcd CD database file
#
# Track frame offsets:
#	150
#	12063
#	31425
#	48750
#	69362
#	89822
#	113641
#	137235
#	154666
#	169096
#	182791
#	198657
#
# Disc length: 2869 seconds
#
# Revision: 0
# Processed by: cddbd v1.4PL0 Copyright (c) Steve Scherf et al.
# Submitted via: CDex 1.50beta10
#
DISCID=9e0b330c
DTITLE=Darren Coggan - Balancing Act
DYEAR=2002
DGENRE=Country
TTITLE0=Love Is A Balancing Act
TTITLE1=The Ghost Of Fishers Creek
TTITLE2=If I Had My Time Again
TTITLE3=If I Could
TTITLE4=Dancing The Night Away
TTITLE5=Spirit Of The Free
TTITLE6=The Cowboy
TTITLE7=Good Man Down
TTITLE8=Power Windows
TTITLE9=Absent Friends
TTITLE10=Flesh and Blood
TTITLE11=The Bush Dance
EXTD=YEAR: 2002
EXTT0=
EXTT1=
EXTT2=
EXTT3=
EXTT4=
EXTT5=
EXTT6=
EXTT7=
EXTT8=
EXTT9=
EXTT10=
EXTT11=
PLAYORDER=
